<?xml version="1.0" encoding="UTF-8"?>
<!DOCTYPE svg PUBLIC "-//W3C//DTD SVG 1.1//EN" "http://www.w3.org/Graphics/SVG/1.1/DTD/svg11.dtd">
<svg xmlns="http://www.w3.org/2000/svg" version="1.1" width="351px" height="143px" style="shape-rendering:geometricPrecision; text-rendering:geometricPrecision; image-rendering:optimizeQuality; fill-rule:evenodd; clip-rule:evenodd" xmlns:xlink="http://www.w3.org/1999/xlink">
<g><path style="opacity:1" fill="#000000" d="M -0.5,-0.5 C 116.5,-0.5 233.5,-0.5 350.5,-0.5C 350.5,47.1667 350.5,94.8333 350.5,142.5C 233.5,142.5 116.5,142.5 -0.5,142.5C -0.5,94.8333 -0.5,47.1667 -0.5,-0.5 Z"/></g>
<g><path style="opacity:1" fill="#3464a9" d="M 227.5,37.5 C 223.366,38.4849 219.032,38.8182 214.5,38.5C 214.343,39.8734 214.51,41.2068 215,42.5C 215.69,41.2617 216.19,41.2617 216.5,42.5C 214.535,51.7514 213.369,61.0847 213,70.5C 214.022,71.354 214.855,72.354 215.5,73.5C 210.244,78.2874 207.911,84.2874 208.5,91.5C 211.86,91.6159 215.193,91.9492 218.5,92.5C 217.432,93.4345 216.099,93.7678 214.5,93.5C 214.433,94.9587 214.766,96.2921 215.5,97.5C 211.186,96.7255 206.853,96.0588 202.5,95.5C 202.724,91.7956 202.89,88.129 203,84.5C 197.835,87.2771 192.335,88.9438 186.5,89.5C 186.5,90.5 186.5,91.5 186.5,92.5C 186.823,98.69 186.49,104.69 185.5,110.5C 171.81,102.988 157.81,95.9883 143.5,89.5C 142.861,88.9032 142.528,88.0698 142.5,87C 142.684,85.6244 143.351,84.7911 144.5,84.5C 155.588,89.2092 166.588,94.2092 177.5,99.5C 178.172,100.267 179.005,100.934 180,101.5C 180.499,97.5138 180.666,93.5138 180.5,89.5C 171.778,88.6382 165.111,84.4715 160.5,77C 154.964,75.0565 149.631,72.8899 144.5,70.5C 150.515,64.4845 156.182,58.1512 161.5,51.5C 157.526,47.8616 153.526,44.1949 149.5,40.5C 147.599,42.0063 145.932,43.6729 144.5,45.5C 142.348,44.9232 142.015,43.7565 143.5,42C 142.256,41.5439 141.423,42.0439 141,43.5C 140.823,39.6437 140.323,35.977 139.5,32.5C 139.56,31.9569 139.893,31.6236 140.5,31.5C 141.251,32.376 141.751,33.376 142,34.5C 143.737,32.3754 145.904,31.542 148.5,32C 154.053,37.2241 159.886,42.0574 166,46.5C 166.902,46.2568 167.735,45.9234 168.5,45.5C 170.612,44.5604 172.612,43.3937 174.5,42C 173.213,40.5905 172.046,39.0905 171,37.5C 169.67,38.5822 168.17,39.2488 166.5,39.5C 172.832,32.3325 178.998,24.9991 185,17.5C 187.07,15.2132 189.57,13.5466 192.5,12.5C 196.71,18.2065 200.71,24.0399 204.5,30C 199.695,33.2398 194.695,36.2398 189.5,39C 195.359,40.1696 200.526,42.6696 205,46.5C 204.604,42.5433 206.104,39.71 209.5,38C 215.491,37.5005 221.491,37.3338 227.5,37.5 Z"/></g>
<g><path style="opacity:1" fill="#edbf17" d="M 191.5,20.5 C 193.934,23.1708 196.267,26.0042 198.5,29C 192.371,32.4002 186.037,35.2335 179.5,37.5C 179.351,36.448 179.517,35.448 180,34.5C 184.046,29.9596 187.879,25.2929 191.5,20.5 Z"/></g>
<g><path style="opacity:1" fill="#326caf" d="M 311.5,123.5 C 305.288,122.652 299.288,120.986 293.5,118.5C 292.996,115.701 291.996,113.201 290.5,111C 285.536,110.088 280.536,109.588 275.5,109.5C 275.788,106.134 275.954,102.8 276,99.5C 273.706,100.422 271.539,101.422 269.5,102.5C 267.898,104.074 265.898,104.741 263.5,104.5C 263.5,105.5 263.5,106.5 263.5,107.5C 263.5,108.5 263.5,109.5 263.5,110.5C 254.798,109.383 246.132,108.05 237.5,106.5C 237.837,102.692 237.337,99.0257 236,95.5C 235,97.5 234,99.5 233,101.5C 231,98.1667 229,94.8333 227,91.5C 225.798,93.6775 225.298,96.0108 225.5,98.5C 222.119,98.5405 218.786,98.2071 215.5,97.5C 214.766,96.2921 214.433,94.9587 214.5,93.5C 216.099,93.7678 217.432,93.4345 218.5,92.5C 219.833,92.5 221.167,92.5 222.5,92.5C 222.928,86.0731 223.928,79.7397 225.5,73.5C 228.156,78.8111 230.822,84.1444 233.5,89.5C 235.623,85.2988 237.457,80.9655 239,76.5C 240.426,84.8172 241.76,93.1505 243,101.5C 245.041,102.423 247.208,102.756 249.5,102.5C 251.948,103.473 254.615,103.806 257.5,103.5C 257.719,102.325 257.386,101.325 256.5,100.5C 245.888,93.9152 242.555,84.5818 246.5,72.5C 247.401,71.7095 248.068,70.7095 248.5,69.5C 250.1,68.0484 251.1,66.2151 251.5,64C 250.463,56.4806 249.296,48.9806 248,41.5C 246.475,40.2799 244.641,39.6132 242.5,39.5C 240.36,39.5561 238.694,40.2227 237.5,41.5C 236.106,47.4121 234.939,53.4121 234,59.5C 232.725,54.1838 231.559,48.8505 230.5,43.5C 225.88,42.5067 221.214,42.1734 216.5,42.5C 216.19,41.2617 215.69,41.2617 215,42.5C 214.51,41.2068 214.343,39.8734 214.5,38.5C 219.032,38.8182 223.366,38.4849 227.5,37.5C 228.749,35.8639 230.416,34.6972 232.5,34C 239.158,33.5004 245.825,33.3337 252.5,33.5C 253.58,42.8946 255.08,52.2279 257,61.5C 261.195,58.0738 266.028,56.4071 271.5,56.5C 271.173,51.456 271.506,46.456 272.5,41.5C 274.311,40.2606 276.311,39.5939 278.5,39.5C 287.179,41.2692 295.846,43.1025 304.5,45C 305.849,45.7724 306.682,46.9391 307,48.5C 308.194,47.5697 309.527,46.9031 311,46.5C 318.621,48.8215 326.288,50.8215 334,52.5C 327.427,76.3881 319.927,100.055 311.5,123.5 Z"/></g>
<g><path style="opacity:1" fill="#375da5" d="M 139.5,32.5 C 140.323,35.977 140.823,39.6437 141,43.5C 141.423,42.0439 142.256,41.5439 143.5,42C 142.015,43.7565 142.348,44.9232 144.5,45.5C 142.226,49.772 139.559,53.772 136.5,57.5C 135.833,51.6535 135.167,45.6535 134.5,39.5C 129.315,41.0883 124.149,42.755 119,44.5C 117.97,44.8361 117.47,45.5028 117.5,46.5C 117.5,47.5 117.5,48.5 117.5,49.5C 118.93,49.5792 120.264,49.2458 121.5,48.5C 122.842,54.7595 123.675,61.0929 124,67.5C 129.199,73.5316 130.866,80.5316 129,88.5C 126.488,93.6357 125.988,98.969 127.5,104.5C 130.971,103.903 134.305,103.236 137.5,102.5C 138.167,95.5 138.833,88.5 139.5,81.5C 141.368,82.2632 143.035,83.2632 144.5,84.5C 143.351,84.7911 142.684,85.6244 142.5,87C 142.528,88.0698 142.861,88.9032 143.5,89.5C 142.759,95.4707 142.425,101.471 142.5,107.5C 135.878,108.791 129.211,109.791 122.5,110.5C 122.789,107.351 122.289,104.351 121,101.5C 119.603,103.07 118.103,104.404 116.5,105.5C 115.833,105.833 115.167,106.167 114.5,106.5C 95.8529,112.346 84.8529,105.679 81.5,86.5C 80.0186,87.4803 78.6853,88.647 77.5,90C 79.1732,94.5084 80.5065,99.0084 81.5,103.5C 82.7249,108.345 84.0583,113.178 85.5,118C 85.1639,119.03 84.4972,119.53 83.5,119.5C 76.8495,121.661 70.1828,123.494 63.5,125C 57.9312,114.029 52.7645,102.862 48,91.5C 45.8368,90.232 43.6702,90.232 41.5,91.5C 39.2752,87.3771 37.2752,83.0437 35.5,78.5C 33.3775,78.6225 31.2109,78.6225 29,78.5C 24.5,70.8333 20,63.1667 15.5,55.5C 34.531,37.8822 56.531,32.7155 81.5,40C 90.9946,45.8208 95.6613,54.3208 95.5,65.5C 100.605,62.0161 106.272,60.6828 112.5,61.5C 112.5,60.5 112.5,59.5 112.5,58.5C 110.738,58.3573 109.071,58.6906 107.5,59.5C 106.194,53.9462 106.194,48.4462 107.5,43C 117.894,38.5909 128.56,35.0909 139.5,32.5 Z"/></g>
<g><path style="opacity:1" fill="#1b2c5e" d="M 168.5,45.5 C 167.758,43.5742 166.758,41.7409 165.5,40C 165.728,39.6012 166.062,39.4346 166.5,39.5C 168.17,39.2488 169.67,38.5822 171,37.5C 172.046,39.0905 173.213,40.5905 174.5,42C 172.612,43.3937 170.612,44.5604 168.5,45.5 Z"/></g>
<g><path style="opacity:1" fill="#c49e18" d="M 248.5,69.5 C 248.204,60.3925 247.038,51.3925 245,42.5C 242.619,41.565 240.119,41.2317 237.5,41.5C 238.694,40.2227 240.36,39.5561 242.5,39.5C 244.641,39.6132 246.475,40.2799 248,41.5C 249.296,48.9806 250.463,56.4806 251.5,64C 251.1,66.2151 250.1,68.0484 248.5,69.5 Z"/></g>
<g><path style="opacity:1" fill="#c39e1b" d="M 85.5,71.5 C 88.5084,59.323 84.175,50.823 72.5,46C 65.5414,44.6695 58.5414,44.3361 51.5,45C 45.77,46.4126 40.1033,47.9126 34.5,49.5C 47.6617,41.7718 61.6617,39.9384 76.5,44C 88.8226,50.2395 91.8226,59.4062 85.5,71.5 Z"/></g>
<g><path style="opacity:1" fill="#f7c610" d="M 144.5,70.5 C 142.534,71.2545 142.2,72.4212 143.5,74C 148.58,75.8043 153.58,77.8043 158.5,80C 162.815,87.1621 169.148,91.3288 177.5,92.5C 178.797,94.9732 178.797,97.3066 177.5,99.5C 166.588,94.2092 155.588,89.2092 144.5,84.5C 143.035,83.2632 141.368,82.2632 139.5,81.5C 139.44,80.9569 139.107,80.6236 138.5,80.5C 137.503,87.8032 137.169,95.1365 137.5,102.5C 134.305,103.236 130.971,103.903 127.5,104.5C 125.988,98.969 126.488,93.6357 129,88.5C 130.866,80.5316 129.199,73.5316 124,67.5C 123.675,61.0929 122.842,54.7595 121.5,48.5C 120.264,49.2458 118.93,49.5792 117.5,49.5C 117.5,48.5 117.5,47.5 117.5,46.5C 122.501,45.1664 127.501,43.833 132.5,42.5C 132.669,48.5229 133.169,54.5229 134,60.5C 135.045,59.6266 135.878,58.6266 136.5,57.5C 139.559,53.772 142.226,49.772 144.5,45.5C 145.932,43.6729 147.599,42.0063 149.5,40.5C 153.526,44.1949 157.526,47.8616 161.5,51.5C 156.182,58.1512 150.515,64.4845 144.5,70.5 Z"/></g>
<g><path style="opacity:1" fill="#f7c510" d="M 237.5,41.5 C 240.119,41.2317 242.619,41.565 245,42.5C 247.038,51.3925 248.204,60.3925 248.5,69.5C 248.068,70.7095 247.401,71.7095 246.5,72.5C 241.372,80.2729 241.206,88.2729 246,96.5C 247.873,98.7089 250.04,100.542 252.5,102C 251.552,102.483 250.552,102.649 249.5,102.5C 247.208,102.756 245.041,102.423 243,101.5C 241.76,93.1505 240.426,84.8172 239,76.5C 237.457,80.9655 235.623,85.2988 233.5,89.5C 230.822,84.1444 228.156,78.8111 225.5,73.5C 223.928,79.7397 222.928,86.0731 222.5,92.5C 221.167,92.5 219.833,92.5 218.5,92.5C 215.193,91.9492 211.86,91.6159 208.5,91.5C 207.911,84.2874 210.244,78.2874 215.5,73.5C 214.855,72.354 214.022,71.354 213,70.5C 213.369,61.0847 214.535,51.7514 216.5,42.5C 221.214,42.1734 225.88,42.5067 230.5,43.5C 231.559,48.8505 232.725,54.1838 234,59.5C 234.939,53.4121 236.106,47.4121 237.5,41.5 Z"/></g>
<g><path style="opacity:1" fill="#fbc80c" d="M 85.5,71.5 C 82.8833,78.39 78.2167,83.39 71.5,86.5C 69.9778,87.1909 68.9778,88.3576 68.5,90C 71.3754,98.6656 73.3754,107.499 74.5,116.5C 72.0628,116.756 69.7294,117.423 67.5,118.5C 58.68,101.573 50.5133,84.2401 43,66.5C 40.5353,66.6314 38.0353,66.6314 35.5,66.5C 33.6667,63.5 31.8333,60.5 30,57.5C 27.7184,52.912 29.2184,50.2454 34.5,49.5C 40.1033,47.9126 45.77,46.4126 51.5,45C 58.5414,44.3361 65.5414,44.6695 72.5,46C 84.175,50.823 88.5084,59.323 85.5,71.5 Z"/></g>
<g><path style="opacity:1" fill="#c29d1e" d="M 136.5,57.5 C 135.878,58.6266 135.045,59.6266 134,60.5C 133.169,54.5229 132.669,48.5229 132.5,42.5C 127.501,43.833 122.501,45.1664 117.5,46.5C 117.47,45.5028 117.97,44.8361 119,44.5C 124.149,42.755 129.315,41.0883 134.5,39.5C 135.167,45.6535 135.833,51.6535 136.5,57.5 Z"/></g>
<g><path style="opacity:1" fill="#c6a012" d="M 200.5,55.5 C 195.926,49.9625 189.926,47.2959 182.5,47.5C 179.488,48.1722 176.488,48.8389 173.5,49.5C 181.944,44.3587 190.61,44.1921 199.5,49C 200.833,50.3333 202.167,51.6667 203.5,53C 202.627,54.045 201.627,54.8783 200.5,55.5 Z"/></g>
<g><path style="opacity:1" fill="#c39e1a" d="M 307.5,78.5 C 307.315,80.1958 306.481,81.5291 305,82.5C 303.046,72.391 300.712,62.391 298,52.5C 292.61,51.0558 287.11,50.0558 281.5,49.5C 281.5,48.5 281.5,47.5 281.5,46.5C 288.222,46.8776 294.722,48.211 301,50.5C 302.615,60.0954 304.782,69.4287 307.5,78.5 Z"/></g>
<g><path style="opacity:1" fill="#f5c512" d="M 200.5,55.5 C 195.671,60.4973 191.004,65.664 186.5,71C 191.642,71.5041 195.809,69.6708 199,65.5C 202.245,68.386 204.912,71.386 207,74.5C 195.609,85.3161 183.109,86.9828 169.5,79.5C 162.598,71.8186 161.765,63.4852 167,54.5C 168.777,52.2101 170.944,50.5434 173.5,49.5C 176.488,48.8389 179.488,48.1722 182.5,47.5C 189.926,47.2959 195.926,49.9625 200.5,55.5 Z"/></g>
<g><path style="opacity:1" fill="#f9c70f" d="M 281.5,49.5 C 287.11,50.0558 292.61,51.0558 298,52.5C 300.712,62.391 303.046,72.391 305,82.5C 306.481,81.5291 307.315,80.1958 307.5,78.5C 309.01,71.4594 310.677,64.4594 312.5,57.5C 317.022,56.3728 321.355,57.0395 325.5,59.5C 319.161,78.8633 312.494,97.8633 305.5,116.5C 302.882,116.221 300.382,115.554 298,114.5C 297.5,108.175 297.334,101.842 297.5,95.5C 297.666,89.8236 297.499,84.1569 297,78.5C 296.209,79.745 295.709,81.0783 295.5,82.5C 294.174,90.1219 293.174,97.7885 292.5,105.5C 288.481,105.354 284.481,105.021 280.5,104.5C 280.547,101.432 281.047,98.4318 282,95.5C 289.488,88.3674 292.154,79.7007 290,69.5C 289.07,66.6384 287.403,64.305 285,62.5C 284.501,59.9783 284.668,57.4783 285.5,55C 284.363,52.9585 283.03,51.1252 281.5,49.5 Z"/></g>
<g><path style="opacity:1" fill="#3b66a9" d="M 180.5,53.5 C 184.819,52.7992 188.486,53.9659 191.5,57C 186.884,61.7381 182.384,66.5715 178,71.5C 171.548,64.5399 172.381,58.5399 180.5,53.5 Z"/></g>
<g><path style="opacity:1" fill="#3f5aa2" d="M 65.5,58.5 C 77.0739,57.6626 80.9072,62.6626 77,73.5C 74.6294,76.206 71.9628,78.5394 69,80.5C 66.5237,73.5726 64.357,66.5726 62.5,59.5C 63.791,59.7373 64.791,59.404 65.5,58.5 Z"/></g>
<g><path style="opacity:1" fill="#1a1b19" d="M 180.5,57.5 C 182.199,57.3398 183.866,57.5065 185.5,58C 182.882,60.7395 180.382,63.5728 178,66.5C 176.927,62.9003 177.76,59.9003 180.5,57.5 Z"/></g>
<g><path style="opacity:1" fill="#c39e1c" d="M 282.5,87.5 C 285.845,69.5117 278.512,62.1784 260.5,65.5C 267.195,60.3558 274.195,60.1892 281.5,65C 287.806,72.2957 288.14,79.7957 282.5,87.5 Z"/></g>
<g><path style="opacity:1" fill="#090e16" d="M 157.5,63.5 C 158.797,65.6934 158.797,68.0268 157.5,70.5C 155.998,69.9169 154.665,69.0836 153.5,68C 155.041,66.6288 156.375,65.1288 157.5,63.5 Z"/></g>
<g><path style="opacity:1" fill="#f5c50e" d="M 282.5,87.5 C 275.806,96.8402 267.139,99.3402 256.5,95C 250.882,90.0712 249.049,83.9045 251,76.5C 252.592,71.412 255.759,67.7453 260.5,65.5C 278.512,62.1784 285.845,69.5117 282.5,87.5 Z"/></g>
<g><path style="opacity:1" fill="#0b0b0b" d="M 68.5,64.5 C 71.9868,65.4446 73.3201,67.7779 72.5,71.5C 71.6977,72.8847 71.0311,72.718 70.5,71C 69.7259,68.8458 69.0592,66.6792 68.5,64.5 Z"/></g>
<g><path style="opacity:1" fill="#7a7c6b" d="M 72.5,71.5 C 73.3201,67.7779 71.9868,65.4446 68.5,64.5C 69.961,62.1889 71.7944,62.1889 74,64.5C 74.8258,67.2116 74.3258,69.5449 72.5,71.5 Z"/></g>
<g><path style="opacity:1" fill="#c39d19" d="M 121.5,92.5 C 124.833,73.8333 117.167,66.1667 98.5,69.5C 108.477,63.1429 116.977,64.8095 124,74.5C 126.284,81.013 125.45,87.013 121.5,92.5 Z"/></g>
<g><path style="opacity:1" fill="#f5c412" d="M 121.5,92.5 C 114.211,103.87 104.544,106.37 92.5,100C 86.052,91.6299 85.8853,83.1299 92,74.5C 93.7772,72.2101 95.9438,70.5434 98.5,69.5C 117.167,66.1667 124.833,73.8333 121.5,92.5 Z"/></g>
<g><path style="opacity:1" fill="#4068aa" d="M 265.5,65.5 C 269.554,65.2105 270.054,65.8771 267,67.5C 265.5,74 268,76.5 274.5,75C 278.211,70.2281 279.377,71.0615 278,77.5C 275.103,82.1549 270.937,83.6549 265.5,82C 257.565,76.5043 257.565,71.0043 265.5,65.5 Z"/></g>
<g><path style="opacity:1" fill="#c69f11" d="M 144.5,70.5 C 149.631,72.8899 154.964,75.0565 160.5,77C 165.111,84.4715 171.778,88.6382 180.5,89.5C 180.666,93.5138 180.499,97.5138 180,101.5C 179.005,100.934 178.172,100.267 177.5,99.5C 178.797,97.3066 178.797,94.9732 177.5,92.5C 169.148,91.3288 162.815,87.1621 158.5,80C 153.58,77.8043 148.58,75.8043 143.5,74C 142.2,72.4212 142.534,71.2545 144.5,70.5 Z"/></g>
<g><path style="opacity:1" fill="#3c65ab" d="M 103.5,70.5 C 104.873,70.3433 106.207,70.51 107.5,71C 103.299,74.5228 103.632,77.5228 108.5,80C 112.493,80.753 115.326,79.253 117,75.5C 118.197,82.6371 115.197,86.6371 108,87.5C 102.211,87.0446 99.0445,83.8779 98.5,78C 99.5463,75.1142 101.213,72.6142 103.5,70.5 Z"/></g>
<g><path style="opacity:1" fill="#c8a115" d="M 305.5,116.5 C 312.494,97.8633 319.161,78.8633 325.5,59.5C 321.355,57.0395 317.022,56.3728 312.5,57.5C 312.491,54.8641 313.825,53.5307 316.5,53.5C 320.097,54.5888 323.763,55.2555 327.5,55.5C 321.167,76.1667 314.833,96.8333 308.5,117.5C 307.209,117.737 306.209,117.404 305.5,116.5 Z"/></g>
<g><path style="opacity:1" fill="#c49f1b" d="M 246.5,72.5 C 242.555,84.5818 245.888,93.9152 256.5,100.5C 257.386,101.325 257.719,102.325 257.5,103.5C 254.615,103.806 251.948,103.473 249.5,102.5C 250.552,102.649 251.552,102.483 252.5,102C 250.04,100.542 247.873,98.7089 246,96.5C 241.206,88.2729 241.372,80.2729 246.5,72.5 Z"/></g>
<g><path style="opacity:1" fill="#c49e1c" d="M 71.5,86.5 C 73.514,95.8893 75.8473,105.223 78.5,114.5C 77.2342,115.362 75.9008,116.029 74.5,116.5C 73.3754,107.499 71.3754,98.6656 68.5,90C 68.9778,88.3576 69.9778,87.1909 71.5,86.5 Z"/></g>
<g><path style="opacity:1" fill="#9d8d50" d="M 139.5,81.5 C 138.833,88.5 138.167,95.5 137.5,102.5C 137.169,95.1365 137.503,87.8032 138.5,80.5C 139.107,80.6236 139.44,80.9569 139.5,81.5 Z"/></g>
<g><path style="opacity:1" fill="#20386d" d="M 143.5,89.5 C 157.81,95.9883 171.81,102.988 185.5,110.5C 184.063,111.725 182.396,112.725 180.5,113.5C 168.531,107.516 156.531,101.516 144.5,95.5C 143.833,99.6475 143.166,103.647 142.5,107.5C 142.425,101.471 142.759,95.4707 143.5,89.5 Z"/></g>
<g><path style="opacity:1" fill="#828c81" d="M 297.5,95.5 C 296.833,91.1667 296.167,86.8333 295.5,82.5C 295.709,81.0783 296.209,79.745 297,78.5C 297.499,84.1569 297.666,89.8236 297.5,95.5 Z"/></g>
<g><path style="opacity:1" fill="#1c2d5f" d="M 83.5,119.5 C 82.5707,120.315 81.5707,121.148 80.5,122C 73.1185,124.405 65.7851,126.905 58.5,129.5C 52.4475,117.011 46.7809,104.344 41.5,91.5C 43.6702,90.232 45.8368,90.232 48,91.5C 52.7645,102.862 57.9312,114.029 63.5,125C 70.1828,123.494 76.8495,121.661 83.5,119.5 Z"/></g>
<g><path style="opacity:1" fill="#1c3063" d="M 114.5,106.5 C 106.652,112.96 97.9855,114.127 88.5,110C 85.6703,108.272 83.337,106.105 81.5,103.5C 80.5065,99.0084 79.1732,94.5084 77.5,90C 78.6853,88.647 80.0186,87.4803 81.5,86.5C 84.8529,105.679 95.8529,112.346 114.5,106.5 Z"/></g>
<g><path style="opacity:1" fill="#1f3568" d="M 215.5,97.5 C 218.786,98.2071 222.119,98.5405 225.5,98.5C 225.298,96.0108 225.798,93.6775 227,91.5C 229,94.8333 231,98.1667 233,101.5C 234,99.5 235,97.5 236,95.5C 237.337,99.0257 237.837,102.692 237.5,106.5C 246.132,108.05 254.798,109.383 263.5,110.5C 263.5,109.5 263.5,108.5 263.5,107.5C 264.782,108.708 264.782,110.042 263.5,111.5C 261.546,112.851 259.379,113.518 257,113.5C 248.826,112.118 240.66,110.785 232.5,109.5C 232.162,107.146 231.662,104.813 231,102.5C 229.915,103.293 228.748,103.96 227.5,104.5C 226.333,102.833 225.167,101.167 224,99.5C 222.261,100.894 220.261,101.561 218,101.5C 211.207,100.172 204.374,99.1724 197.5,98.5C 197.712,94.9853 197.712,91.652 197.5,88.5C 194.141,90.6797 190.474,92.013 186.5,92.5C 186.5,91.5 186.5,90.5 186.5,89.5C 192.335,88.9438 197.835,87.2771 203,84.5C 202.89,88.129 202.724,91.7956 202.5,95.5C 206.853,96.0588 211.186,96.7255 215.5,97.5 Z"/></g>
<g><path style="opacity:1" fill="#1b2b5c" d="M 142.5,107.5 C 140.507,109.163 138.174,110.33 135.5,111C 129.47,111.769 123.47,112.602 117.5,113.5C 116.52,110.914 116.187,108.247 116.5,105.5C 118.103,104.404 119.603,103.07 121,101.5C 122.289,104.351 122.789,107.351 122.5,110.5C 129.211,109.791 135.878,108.791 142.5,107.5 Z"/></g>
<g><path style="opacity:1" fill="#23336a" d="M 311.5,123.5 C 309.713,125.141 307.546,126.141 305,126.5C 299.718,125.406 294.551,123.906 289.5,122C 287.709,119.894 287.042,117.394 287.5,114.5C 281.878,113.452 276.211,112.619 270.5,112C 270.603,108.783 270.27,105.617 269.5,102.5C 271.539,101.422 273.706,100.422 276,99.5C 275.954,102.8 275.788,106.134 275.5,109.5C 280.536,109.588 285.536,110.088 290.5,111C 291.996,113.201 292.996,115.701 293.5,118.5C 299.288,120.986 305.288,122.652 311.5,123.5 Z"/></g>
</svg>
